<svg width="124" height="47" viewBox="0 0 124 47" fill="none" xmlns="http://www.w3.org/2000/svg">
<path d="M17.8389 46.8803C20.0932 46.5486 22.1388 45.5534 23.8713 43.915C25.5411 42.357 26.5639 40.789 27.2632 38.7284C28.0355 36.4667 28.2233 34.9389 28.2233 30.8679V27.7218H29.2044C31.5422 27.7218 35.3411 27.2996 37.3032 26.8171C39.3593 26.3145 40.309 25.9527 41.3422 25.2792C46.2474 22.1029 48.0217 17.459 46.4353 11.9909C46.2057 11.1968 46.1118 11.1264 45.9657 11.6491C45.7152 12.6342 44.9742 14.4737 44.421 15.5291C42.6468 18.9165 40.1733 21.0877 36.7918 22.2135C34.7358 22.897 33.2747 23.1181 29.7158 23.2488L28.0355 23.3191L27.9624 22.7562C27.9207 22.4446 27.9102 20.9369 27.9415 19.409C27.9833 17.0569 28.025 16.4639 28.2129 15.6598C28.9852 12.3025 30.6133 10.2319 33.1703 9.3473C33.7652 9.14627 34.1722 9.08596 35.195 9.04575C35.9047 9.02565 36.4474 8.96534 36.3952 8.91508C36.1865 8.71405 34.7254 8.51301 33.0659 8.4527C30.6029 8.37229 29.3922 8.55322 27.3884 9.29704C26.0838 9.77953 25.3219 10.2721 24.9984 10.845C24.6331 11.4984 24.0904 13.0061 23.9443 13.7499C23.8817 14.1118 23.7564 14.6747 23.673 15.0064C23.4538 15.9513 23.3077 19.017 23.3807 21.2987L23.4538 23.3694L21.6378 23.4297C13.1528 23.7514 7.74661 26.0733 5.7219 30.2749C4.8974 32.0038 4.71998 32.8883 4.71998 35.3108C4.71998 36.6778 4.76172 37.4719 4.88696 38.1052C5.14788 39.432 5.69059 40.6683 6.56727 41.9449C7.0891 42.6988 8.0284 43.6939 8.12233 43.5934C8.1432 43.5733 8.07015 43.2114 7.95534 42.7993C7.69443 41.8444 7.56919 38.5474 7.75705 37.3714C7.90316 36.4567 8.2267 35.4013 8.56067 34.6775C8.69635 34.386 8.81115 34.1046 8.81115 34.0543C8.81115 33.803 10.1575 32.0842 10.8985 31.4107C12.6727 29.7723 14.8748 28.7671 17.8389 28.2344C18.8617 28.0535 23.4851 27.7419 23.5895 27.8524C23.7147 27.9731 23.8608 30.8981 23.8086 32.1948C23.7356 33.8935 23.339 36.326 23.005 37.1703C22.4623 38.4972 21.93 39.3114 21.022 40.1859C19.6235 41.5328 18.2459 42.1258 16.4821 42.1359C15.2923 42.1359 14.6348 41.9851 13.4555 41.4423C12.4222 40.9598 11.2742 40.0351 10.7524 39.2711C10.5854 39.0299 10.3662 38.7083 10.2618 38.5675C9.95918 38.1353 9.54172 36.8386 9.45822 36.0546L9.37473 35.3108L9.15556 35.7129C9.04076 35.934 8.77984 36.5471 8.59198 37.0698C8.24757 38.0046 8.23713 38.0549 8.24757 39.633C8.24757 41.2312 8.24757 41.2513 8.63373 42.2263C9.3956 44.2367 10.7837 45.7243 12.4431 46.3174C14.2173 46.9607 16.0229 47.1517 17.8389 46.8803ZM3.27972 37.5322C2.85182 34.0744 3.70762 30.7172 5.80539 27.6414C7.22478 25.5607 10.408 23.3995 13.612 22.3441C14.7079 21.9722 17.4214 21.2284 19.5818 20.6856L20.9072 20.3539L21.022 19.8413C21.9092 15.7703 22.6084 13.1569 23.1094 12.0914C23.1616 11.9808 23.2972 11.6692 23.412 11.3878C24.1217 9.62875 25.7916 7.41738 27.3467 6.19108C29.2253 4.71348 31.8344 3.54748 34.1827 3.14542C35.4559 2.92428 37.4076 2.85392 38.493 2.98459C39.0044 3.0449 39.4532 3.07505 39.4741 3.0449C39.5367 2.99464 38.6078 2.1704 38.0547 1.78844C36.844 0.95415 35.1011 0.290741 33.5565 0.0696036C31.8031 -0.171637 29.2253 0.23043 27.4406 1.02451C25.635 1.82865 23.5268 3.43692 22.2223 5.00498C20.7194 6.81428 19.467 9.31715 18.8199 11.7899C18.632 12.4834 17.5779 16.9665 17.5779 17.0368C17.5779 17.1575 16.3882 17.5696 14.5826 18.0722C11.2951 18.9668 9.19731 19.8111 6.62989 21.2686C5.46098 21.922 4.77216 22.4446 3.61369 23.5403C2.14212 24.9174 0.837541 26.8875 0.409638 28.3751C0.315708 28.7068 0.180033 29.1592 0.117412 29.3803C-0.0391375 29.903 -0.0391375 32.3757 0.117412 32.8984C0.180033 33.1195 0.315708 33.5919 0.409638 33.9538C0.618371 34.7479 1.43243 36.4165 1.97514 37.1703C2.41348 37.7734 3.29016 38.6982 3.36321 38.6278C3.38409 38.6077 3.35278 38.1152 3.27972 37.5322ZM45.6213 10.3625C45.4751 9.54834 43.9514 7.76919 42.3755 6.59314C40.1629 4.94467 37.9607 4.19079 35.3724 4.19079C33.5356 4.19079 32.2101 4.49234 30.6133 5.26632C29.7158 5.68849 28.2964 6.65345 27.8163 7.15604C27.5241 7.44754 27.5554 7.45759 28.3381 7.30681C29.841 7.02536 30.9369 6.90474 32.6067 6.84443C36.51 6.71376 39.067 7.20629 42.1145 8.67384C43.1686 9.18647 45.3395 10.5133 45.3395 10.654C45.3395 10.6942 45.4125 10.7344 45.5065 10.7344C45.6526 10.7344 45.663 10.6641 45.6213 10.3625Z" fill="white"/>
<path d="M70.9171 15.126C70.7925 15.8287 70.4978 16.418 70.0331 16.894C69.5798 17.3587 69.0358 17.676 68.4011 17.846C68.9791 17.982 69.4268 18.2597 69.7441 18.679C70.0728 19.0983 70.2371 19.597 70.2371 20.175C70.2371 20.3563 70.2201 20.5433 70.1861 20.736C70.0161 21.756 69.5288 22.555 68.7241 23.133C67.9195 23.711 66.8768 24 65.5961 24H59.6631L61.7881 12.015H67.5341C68.6221 12.015 69.4665 12.236 70.0671 12.678C70.6678 13.1087 70.9681 13.7263 70.9681 14.531C70.9681 14.7237 70.9511 14.922 70.9171 15.126ZM67.3981 15.738C67.4095 15.6813 67.4151 15.5963 67.4151 15.483C67.4151 14.939 67.0581 14.667 66.3441 14.667H64.6611L64.2871 16.792H65.9701C66.7975 16.792 67.2735 16.4407 67.3981 15.738ZM66.8711 20.26C66.8825 20.2033 66.8881 20.124 66.8881 20.022C66.8881 19.7387 66.7918 19.5233 66.5991 19.376C66.4178 19.2173 66.1458 19.138 65.7831 19.138H63.8621L63.4881 21.331H65.4261C66.2535 21.331 66.7351 20.974 66.8711 20.26ZM79.0074 22.045H74.7574L73.7714 24H70.2694L76.7464 12.015H80.5884L82.8324 24H79.3134L79.0074 22.045ZM78.6164 19.512L78.0214 15.619L76.0494 19.512H78.6164ZM95.0534 12.015L94.5774 14.667H91.3984L89.7494 24H86.4004L88.0494 14.667H84.8874L85.3634 12.015H95.0534ZM105.313 12.015L104.837 14.667H101.658L100.009 24H96.6602L98.3092 14.667H95.1472L95.6232 12.015H105.313ZM108.229 21.467H111.952L111.493 24H104.421L106.546 12.015H109.878L108.229 21.467ZM117.77 14.65L117.43 16.639H121.255L120.796 19.172H116.971L116.58 21.348H120.915L120.456 24H112.772L114.897 12.015H122.564L122.105 14.65H117.77ZM54.1465 29.015L52.0385 41H48.6895L50.8145 29.015H54.1465ZM65.037 41H61.688L58.458 34.302L57.268 41H53.919L56.044 29.015H59.376L62.623 35.798L63.813 29.015H67.145L65.037 41ZM77.169 29.015L76.71 31.667H71.916L71.542 33.775H75.061L74.619 36.308H71.1L70.267 41H66.918L69.043 29.015H77.169ZM81.9043 29.015L79.7963 41H76.4473L78.5723 29.015H81.9043ZM92.7948 41H89.4458L86.2158 34.302L85.0258 41H81.6768L83.8018 29.015H87.1338L90.3808 35.798L91.5708 29.015H94.9028L92.7948 41ZM100.133 29.015L98.0248 41H94.6758L96.8008 29.015H100.133ZM111.057 29.015L110.581 31.667H107.402L105.753 41H102.404L104.053 31.667H100.891L101.367 29.015H111.057ZM123.187 29.015L117.526 37.192L116.846 41H113.514L114.177 37.192L111.406 29.015H115.214L116.506 33.656L119.43 29.015H123.187Z" fill="white"/>
</svg>
